<svg id="Layer_1" data-name="Layer 1" xmlns="http://www.w3.org/2000/svg" viewBox="0 0 380 340"><defs><style>.cls-1{fill:#231f20;}</style></defs><title>Icon-Set</title><path class="cls-1" d="M305.18,339.9c8.26-.91,14.34-8.21,14.34-16.52V307.62a16.19,16.19,0,0,0,16.19-16.19V226.67a16.18,16.18,0,0,0-16.19-16.19h-2.26l-22.44-75.42a8.09,8.09,0,0,0-7.68-5.54H92.86a8.09,8.09,0,0,0-7.68,5.54L62.74,210.48H60.48a16.18,16.18,0,0,0-16.19,16.19v64.76a16.19,16.19,0,0,0,16.19,16.19v15.76c0,8.31,6.08,15.61,14.34,16.52a16.2,16.2,0,0,0,18-16.09V307.62H287.14v16.19A16.2,16.2,0,0,0,305.18,339.9ZM104.94,153.81H275.07l16.86,56.67H88.07ZM86.61,269.08a18.22,18.22,0,1,1,16.27-16.25A18.23,18.23,0,0,1,86.61,269.08Zm190.51-16.27a18.22,18.22,0,1,1,16.26,16.26A18.22,18.22,0,0,1,277.12,252.81Z"/><path class="cls-1" d="M351.81,116.51,190,31.62,28.19,116.51a17,17,0,0,1-23-7.15L.12,99.61,190,0,379.88,99.61l-5.11,9.75A17,17,0,0,1,351.81,116.51Z"/></svg>