<svg id="Layer_1" data-name="Layer 1" xmlns="http://www.w3.org/2000/svg" viewBox="0 0 380 340"><defs><style>.cls-1{fill:#231f20;}</style></defs><title>Icon-Set</title><path class="cls-1" d="M7.79,54.64,0,46.86,47.12-.25,94.23,46.86l-7.77,7.78a17,17,0,0,1-24,0L47.12,39.35,31.83,54.64A17,17,0,0,1,7.79,54.64Z"/><polygon class="cls-1" points="360.66 307.4 33.12 307.4 33.12 19.55 61.12 19.55 61.12 279.4 360.66 279.4 360.66 307.4"/><path class="cls-1" d="M333.35,340.52l-7.78-7.78a17,17,0,0,1,0-24l15.29-15.29-15.29-15.3a17,17,0,0,1,0-24l7.78-7.78,47.11,47.12Z"/><path class="cls-1" d="M344.89,234.28H331.33a14,14,0,0,1,0-28h13.56c4.11,0,7.44-3,7.44-6.78V186.37a14,14,0,0,1,28,0V199.5C380.33,218.68,364.43,234.28,344.89,234.28Z"/><path class="cls-1" d="M279.52,234.28h-71.4a14,14,0,0,1,0-28h71.4a14,14,0,0,1,0,28Z"/><path class="cls-1" d="M155.16,234.28H141.6c-19.54,0-35.44-15.6-35.44-34.78V186.37a14,14,0,0,1,28,0V199.5c0,3.74,3.34,6.78,7.44,6.78h13.56a14,14,0,0,1,0,28Z"/><path class="cls-1" d="M120.16,151.45a14,14,0,0,1-14-14V96.71a14,14,0,0,1,28,0v40.74A14,14,0,0,1,120.16,151.45Z"/><path class="cls-1" d="M120.16,61.79a14,14,0,0,1-14-14V34.65c0-19.17,15.9-34.77,35.44-34.77h13.56a14,14,0,1,1,0,28H141.6c-4.1,0-7.44,3-7.44,6.77V47.79A14,14,0,0,1,120.16,61.79Z"/><path class="cls-1" d="M278.38,27.88H207a14,14,0,0,1,0-28h71.4a14,14,0,0,1,0,28Z"/><path class="cls-1" d="M366.33,61.79a14,14,0,0,1-14-14V34.65c0-3.73-3.33-6.77-7.44-6.77H331.33a14,14,0,0,1,0-28h13.56c19.54,0,35.44,15.6,35.44,34.77V47.79A14,14,0,0,1,366.33,61.79Z"/><path class="cls-1" d="M366.33,151.45a14,14,0,0,1-14-14V96.71a14,14,0,1,1,28,0v40.74A14,14,0,0,1,366.33,151.45Z"/></svg>