<svg id="Layer_1" data-name="Layer 1" xmlns="http://www.w3.org/2000/svg" viewBox="0 0 380 340"><defs><style>.cls-1{fill:#231f20;}</style></defs><title>Icon-Set</title><path class="cls-1" d="M266.05,128a8.26,8.26,0,1,0,8.25,8.26A8.26,8.26,0,0,0,266.05,128Zm-33-24.77a8.26,8.26,0,1,0,8.26,8.26A8.26,8.26,0,0,0,233,103.21ZM228.89,128a8.26,8.26,0,1,0,8.26,8.26A8.26,8.26,0,0,0,228.89,128Zm37.16-24.77a8.26,8.26,0,1,0,8.25,8.26A8.26,8.26,0,0,0,266.05,103.21Zm45.41-24.77H216.51a8.26,8.26,0,1,0,0,16.51h94.95a8.26,8.26,0,1,0,0-16.51ZM307.33,0a57.73,57.73,0,0,0-47.78,25.29,45.38,45.38,0,0,0-38.92,44.89h90.83a45.4,45.4,0,0,0-32.67-43.56,42.1,42.1,0,0,1,28.54-11.14c20.21,0,41.28,14.58,41.28,42.32v95h16.52v-95A57.8,57.8,0,0,0,307.33,0Zm4.13,136.24a8.26,8.26,0,1,0-8.26,8.25A8.26,8.26,0,0,0,311.46,136.24Zm-4.13-24.77a8.26,8.26,0,1,0-8.26,8.25A8.26,8.26,0,0,0,307.33,111.47Z"/><path class="cls-1" d="M14.79,236.45A73.88,73.88,0,0,0,52,300.58L33.1,319.48a12,12,0,0,0,17,17l27.06-27.06a73.88,73.88,0,0,0,11.59,1H291.24a73.88,73.88,0,0,0,11.59-1l27.06,27.06a12,12,0,0,0,17-17L328,300.58a73.88,73.88,0,0,0,37.22-64.13V206.86H14.79Zm14.8-66.57H14.79A14.79,14.79,0,0,0,0,184.67v7.4H380v-7.4a14.79,14.79,0,0,0-14.79-14.79H29.59Z"/></svg>